NotoSansSoraSompeng-Bold.ufo
<glyph name="hyphen" format="2">
  <advance width="342"/>
  <unicode hex="002D"/>
  <outline>
    <contour>
      <point x="35" y="217" type="line"/>
      <point x="307" y="217" type="line"/>
      <point x="307" y="334" type="line"/>
      <point x="35" y="334" type="line"/>
    </contour>
  </outline>
</glyph>
<glyph name="u110D0" format="2">
  <advance width="677"/>
  <unicode hex="110D0"/>
  <outline>
    <contour>
      <point x="169" y="0" type="line"/>
      <point x="301" y="0" type="line"/>
      <point x="301" y="433" type="line" smooth="yes"/>
      <point x="301" y="636"/>
      <point x="409" y="691"/>
      <point x="464" y="691" type="curve" smooth="yes"/>
      <point x="494" y="691"/>
      <point x="518" y="675"/>
      <point x="527" y="647" type="curve"/>
      <point x="540" y="654" type="line"/>
      <point x="534" y="662"/>
      <point x="527" y="670"/>
      <point x="517" y="670" type="curve" smooth="yes"/>
      <point x="467" y="670"/>
      <point x="420" y="627"/>
      <point x="420" y="570" type="curve" smooth="yes"/>
      <point x="420" y="493"/>
      <point x="478" y="452"/>
      <point x="537" y="452" type="curve" smooth="yes"/>
      <point x="591" y="452"/>
      <point x="662" y="486"/>
      <point x="662" y="593" type="curve" smooth="yes"/>
      <point x="662" y="731"/>
      <point x="574" y="815"/>
      <point x="467" y="815" type="curve" smooth="yes"/>
      <point x="391" y="815"/>
      <point x="332" y="783"/>
      <point x="293" y="723" type="curve"/>
      <point x="291" y="724" type="line"/>
      <point x="293" y="730"/>
      <point x="297" y="743"/>
      <point x="297" y="764" type="curve" smooth="yes"/>
      <point x="297" y="800" type="line"/>
      <point x="162" y="800" type="line"/>
      <point x="0" y="328" type="line"/>
      <point x="122" y="328" type="line"/>
      <point x="142" y="396" type="line" smooth="yes"/>
      <point x="156" y="442"/>
      <point x="173" y="501"/>
      <point x="196" y="584" type="curve"/>
      <point x="203" y="581" type="line"/>
      <point x="179" y="499"/>
      <point x="169" y="410"/>
      <point x="169" y="352" type="curve" smooth="yes"/>
    </contour>
    <contour>
      <point x="541" y="538" type="curve" smooth="yes"/>
      <point x="521" y="538"/>
      <point x="505" y="553"/>
      <point x="505" y="580" type="curve" smooth="yes"/>
      <point x="505" y="608"/>
      <point x="521" y="625"/>
      <point x="541" y="625" type="curve" smooth="yes"/>
      <point x="560" y="625"/>
      <point x="576" y="608"/>
      <point x="576" y="581" type="curve" smooth="yes"/>
      <point x="576" y="556"/>
      <point x="560" y="538"/>
    </contour>
  </outline>
</glyph>
<glyph name="u110D1" format="2">
  <advance width="543"/>
  <unicode hex="110D1"/>
  <outline>
    <contour>
      <point x="258" y="-15" type="curve" smooth="yes"/>
      <point x="403" y="-15"/>
      <point x="508" y="87"/>
      <point x="508" y="271" type="curve" smooth="yes"/>
      <point x="508" y="391"/>
      <point x="444" y="489"/>
      <point x="377" y="522" type="curve"/>
      <point x="413" y="552"/>
      <point x="430" y="596"/>
      <point x="430" y="644" type="curve" smooth="yes"/>
      <point x="430" y="751"/>
      <point x="339" y="814"/>
      <point x="251" y="814" type="curve" smooth="yes"/>
      <point x="184" y="814"/>
      <point x="123" y="767"/>
      <point x="123" y="693" type="curve" smooth="yes"/>
      <point x="123" y="625"/>
      <point x="175" y="583"/>
      <point x="229" y="583" type="curve" smooth="yes"/>
      <point x="288" y="583"/>
      <point x="335" y="633"/>
      <point x="321" y="697" type="curve"/>
      <point x="312" y="689" type="line"/>
      <point x="328" y="683"/>
      <point x="332" y="662"/>
      <point x="332" y="646" type="curve" smooth="yes"/>
      <point x="332" y="600"/>
      <point x="293" y="562"/>
      <point x="253" y="533" type="curve"/>
      <point x="253" y="447" type="line"/>
      <point x="341" y="426"/>
      <point x="376" y="345"/>
      <point x="376" y="270" type="curve" smooth="yes"/>
      <point x="376" y="157"/>
      <point x="312" y="110"/>
      <point x="251" y="110" type="curve" smooth="yes"/>
      <point x="200" y="110"/>
      <point x="161" y="129"/>
      <point x="139" y="173" type="curve"/>
      <point x="132" y="161" type="line"/>
      <point x="148" y="145"/>
      <point x="162" y="138"/>
      <point x="182" y="138" type="curve" smooth="yes"/>
      <point x="246" y="138"/>
      <point x="303" y="190"/>
      <point x="303" y="273" type="curve" smooth="yes"/>
      <point x="303" y="363"/>
      <point x="249" y="416"/>
      <point x="175" y="416" type="curve" smooth="yes"/>
      <point x="109" y="416"/>
      <point x="35" y="366"/>
      <point x="35" y="232" type="curve" smooth="yes"/>
      <point x="35" y="91"/>
      <point x="113" y="-15"/>
    </contour>
    <contour>
      <point x="172" y="218" type="curve" smooth="yes"/>
      <point x="151" y="218"/>
      <point x="137" y="236"/>
      <point x="137" y="270" type="curve" smooth="yes"/>
      <point x="137" y="302"/>
      <point x="151" y="320"/>
      <point x="172" y="320" type="curve" smooth="yes"/>
      <point x="193" y="320"/>
      <point x="208" y="302"/>
      <point x="208" y="270" type="curve" smooth="yes"/>
      <point x="208" y="236"/>
      <point x="193" y="218"/>
    </contour>
    <contour>
      <point x="237" y="662" type="curve" smooth="yes"/>
      <point x="216" y="662"/>
      <point x="204" y="677"/>
      <point x="204" y="697" type="curve" smooth="yes"/>
      <point x="204" y="719"/>
      <point x="217" y="734"/>
      <point x="238" y="734" type="curve" smooth="yes"/>
      <point x="258" y="734"/>
      <point x="270" y="719"/>
      <point x="270" y="697" type="curve" smooth="yes"/>
      <point x="270" y="676"/>
      <point x="257" y="662"/>
    </contour>
  </outline>
</glyph>
<glyph name="u110D2" format="2">
  <advance width="493"/>
  <unicode hex="110D2"/>
  <outline>
    <contour>
      <point x="267" y="0" type="line"/>
      <point x="423" y="0" type="line"/>
      <point x="423" y="800" type="line"/>
      <point x="304" y="800" type="line"/>
      <point x="278" y="783"/>
      <point x="249" y="778"/>
      <point x="224" y="778" type="curve" smooth="yes"/>
      <point x="199" y="778"/>
      <point x="169" y="783"/>
      <point x="139" y="800" type="curve"/>
      <point x="35" y="800" type="line"/>
      <point x="35" y="600" type="line"/>
      <point x="150" y="600" type="line"/>
      <point x="150" y="683" type="line"/>
      <point x="173" y="663"/>
      <point x="199" y="658"/>
      <point x="222" y="658" type="curve" smooth="yes"/>
      <point x="245" y="658"/>
      <point x="270" y="663"/>
      <point x="291" y="682" type="curve"/>
      <point x="291" y="496" type="line"/>
      <point x="41" y="496" type="line"/>
      <point x="41" y="371" type="line"/>
      <point x="158" y="278"/>
      <point x="239" y="151"/>
      <point x="267" y="6" type="curve"/>
    </contour>
    <contour>
      <point x="293" y="221" type="line"/>
      <point x="286" y="244"/>
      <point x="274" y="270"/>
      <point x="263" y="287" type="curve" smooth="yes"/>
      <point x="247" y="314"/>
      <point x="230" y="350"/>
      <point x="197" y="381" type="curve"/>
      <point x="291" y="381" type="line"/>
      <point x="291" y="318" type="line" smooth="yes"/>
      <point x="291" y="283"/>
      <point x="294" y="251"/>
      <point x="297" y="222" type="curve"/>
    </contour>
  </outline>
</glyph>
<glyph name="u110D3" format="2">
  <advance width="586"/>
  <unicode hex="110D3"/>
  <outline>
    <contour>
      <point x="299" y="0" type="line"/>
      <point x="581" y="0" type="line"/>
      <point x="581" y="125" type="line"/>
      <point x="431" y="125" type="line"/>
      <point x="431" y="461" type="line"/>
      <point x="314" y="461" type="line"/>
      <point x="305" y="428"/>
      <point x="279" y="414"/>
      <point x="256" y="414" type="curve" smooth="yes"/>
      <point x="196" y="414"/>
      <point x="170" y="480"/>
      <point x="170" y="555" type="curve" smooth="yes"/>
      <point x="170" y="658"/>
      <point x="213" y="690"/>
      <point x="253" y="690" type="curve" smooth="yes"/>
      <point x="302" y="690"/>
      <point x="324" y="641"/>
      <point x="324" y="576" type="curve"/>
      <point x="459" y="576" type="line"/>
      <point x="459" y="718"/>
      <point x="392" y="815"/>
      <point x="259" y="815" type="curve" smooth="yes"/>
      <point x="120" y="815"/>
      <point x="35" y="700"/>
      <point x="35" y="542" type="curve" smooth="yes"/>
      <point x="35" y="415"/>
      <point x="99" y="294"/>
      <point x="223" y="294" type="curve" smooth="yes"/>
      <point x="274" y="294"/>
      <point x="312" y="321"/>
      <point x="330" y="371" type="curve"/>
      <point x="299" y="385" type="line"/>
    </contour>
  </outline>
</glyph>
<glyph name="u110D4" format="2">
  <advance width="654"/>
  <unicode hex="110D4"/>
  <outline>
    <contour>
      <point x="479" y="-15" type="curve" smooth="yes"/>
      <point x="551" y="-15"/>
      <point x="619" y="45"/>
      <point x="619" y="178" type="curve" smooth="yes"/>
      <point x="620" y="378"/>
      <point x="508" y="451"/>
      <point x="426" y="452" type="curve" smooth="yes"/>
      <point x="360" y="453"/>
      <point x="313" y="426"/>
      <point x="288" y="397" type="curve"/>
      <point x="288" y="631" type="line" smooth="yes"/>
      <point x="288" y="750"/>
      <point x="235" y="814"/>
      <point x="146" y="814" type="curve" smooth="yes"/>
      <point x="67" y="814"/>
      <point x="15" y="743"/>
      <point x="15" y="671" type="curve" smooth="yes"/>
      <point x="15" y="582"/>
      <point x="80" y="541"/>
      <point x="134" y="541" type="curve" smooth="yes"/>
      <point x="155" y="541"/>
      <point x="164" y="545"/>
      <point x="174" y="552" type="curve"/>
      <point x="161" y="561" type="line"/>
      <point x="159" y="530"/>
      <point x="156" y="485"/>
      <point x="156" y="444" type="curve" smooth="yes"/>
      <point x="156" y="1" type="line"/>
      <point x="288" y="0" type="line"/>
      <point x="288" y="247" type="line"/>
      <point x="314" y="289"/>
      <point x="359" y="317"/>
      <point x="404" y="317" type="curve" smooth="yes"/>
      <point x="441" y="317"/>
      <point x="481" y="295"/>
      <point x="488" y="248" type="curve"/>
      <point x="501" y="253" type="line"/>
      <point x="496" y="261"/>
      <point x="489" y="272"/>
      <point x="478" y="272" type="curve" smooth="yes"/>
      <point x="400" y="272"/>
      <point x="342" y="220"/>
      <point x="343" y="131" type="curve" smooth="yes"/>
      <point x="345" y="30"/>
      <point x="411" y="-15"/>
    </contour>
    <contour>
      <point x="480" y="81" type="curve" smooth="yes"/>
      <point x="456" y="81"/>
      <point x="439" y="101"/>
      <point x="439" y="138" type="curve" smooth="yes"/>
      <point x="439" y="177"/>
      <point x="456" y="197"/>
      <point x="480" y="197" type="curve" smooth="yes"/>
      <point x="504" y="197"/>
      <point x="520" y="177"/>
      <point x="520" y="138" type="curve" smooth="yes"/>
      <point x="520" y="101"/>
      <point x="504" y="81"/>
    </contour>
    <contour>
      <point x="148" y="628" type="curve" smooth="yes"/>
      <point x="126" y="628"/>
      <point x="112" y="646"/>
      <point x="112" y="671" type="curve" smooth="yes"/>
      <point x="112" y="697"/>
      <point x="126" y="717"/>
      <point x="148" y="717" type="curve" smooth="yes"/>
      <point x="169" y="717"/>
      <point x="183" y="697"/>
      <point x="183" y="673" type="curve" smooth="yes"/>
      <point x="183" y="646"/>
      <point x="169" y="628"/>
    </contour>
  </outline>
</glyph>
<glyph name="u110D5" format="2">
  <advance width="541"/>
  <unicode hex="110D5"/>
  <outline>
    <contour>
      <point x="256" y="-15" type="curve" smooth="yes"/>
      <point x="412" y="-15"/>
      <point x="506" y="101"/>
      <point x="506" y="247" type="curve" smooth="yes"/>
      <point x="506" y="356"/>
      <point x="466" y="422"/>
      <point x="402" y="464" type="curve"/>
      <point x="402" y="800" type="line"/>
      <point x="270" y="800" type="line"/>
      <point x="88" y="688" type="line"/>
      <point x="88" y="558" type="line"/>
      <point x="270" y="670" type="line"/>
      <point x="270" y="399" type="line"/>
      <point x="337" y="381"/>
      <point x="371" y="327"/>
      <point x="371" y="250" type="curve" smooth="yes"/>
      <point x="371" y="154"/>
      <point x="308" y="109"/>
      <point x="287" y="109" type="curve"/>
      <point x="295" y="117"/>
      <point x="313" y="143"/>
      <point x="313" y="185" type="curve" smooth="yes"/>
      <point x="313" y="264"/>
      <point x="261" y="328"/>
      <point x="176" y="328" type="curve" smooth="yes"/>
      <point x="96" y="328"/>
      <point x="35" y="259"/>
      <point x="35" y="167" type="curve" smooth="yes"/>
      <point x="35" y="74"/>
      <point x="113" y="-15"/>
    </contour>
    <contour>
      <point x="177" y="116" type="curve" smooth="yes"/>
      <point x="153" y="116"/>
      <point x="136" y="136"/>
      <point x="136" y="173" type="curve" smooth="yes"/>
      <point x="136" y="212"/>
      <point x="153" y="232"/>
      <point x="177" y="232" type="curve" smooth="yes"/>
      <point x="201" y="232"/>
      <point x="217" y="212"/>
      <point x="217" y="173" type="curve" smooth="yes"/>
      <point x="217" y="136"/>
      <point x="201" y="116"/>
    </contour>
  </outline>
</glyph>
<glyph name="u110D6" format="2">
  <advance width="532"/>
  <unicode hex="110D6"/>
  <outline>
    <contour>
      <point x="319" y="-15" type="curve" smooth="yes"/>
      <point x="412" y="-15"/>
      <point x="487" y="47"/>
      <point x="487" y="137" type="curve" smooth="yes"/>
      <point x="487" y="202"/>
      <point x="456" y="253"/>
      <point x="377" y="327" type="curve"/>
      <point x="399" y="349"/>
      <point x="427" y="370"/>
      <point x="460" y="387" type="curve"/>
      <point x="460" y="492" type="line"/>
      <point x="382" y="510"/>
      <point x="338" y="568"/>
      <point x="338" y="589" type="curve" smooth="yes"/>
      <point x="338" y="597"/>
      <point x="338" y="601"/>
      <point x="338" y="604" type="curve"/>
      <point x="319" y="608" type="line"/>
      <point x="329" y="595"/>
      <point x="344" y="584"/>
      <point x="374" y="584" type="curve" smooth="yes"/>
      <point x="422" y="584"/>
      <point x="479" y="622"/>
      <point x="479" y="696" type="curve" smooth="yes"/>
      <point x="479" y="754"/>
      <point x="443" y="815"/>
      <point x="366" y="815" type="curve" smooth="yes"/>
      <point x="294" y="815"/>
      <point x="208" y="749"/>
      <point x="209" y="629" type="curve" smooth="yes"/>
      <point x="209" y="562"/>
      <point x="244" y="477"/>
      <point x="354" y="421" type="curve"/>
      <point x="346" y="442" type="line"/>
      <point x="321" y="429"/>
      <point x="309" y="412"/>
      <point x="290" y="388" type="curve"/>
      <point x="63" y="565" type="line"/>
      <point x="15" y="450" type="line"/>
      <point x="215" y="303" type="line"/>
      <point x="186" y="261"/>
      <point x="163" y="200"/>
      <point x="163" y="154" type="curve" smooth="yes"/>
      <point x="163" y="54"/>
      <point x="233" y="-15"/>
    </contour>
    <contour>
      <point x="365" y="663" type="curve" smooth="yes"/>
      <point x="345" y="663"/>
      <point x="332" y="677"/>
      <point x="332" y="698" type="curve" smooth="yes"/>
      <point x="332" y="720"/>
      <point x="344" y="735"/>
      <point x="364" y="735" type="curve" smooth="yes"/>
      <point x="385" y="735"/>
      <point x="398" y="720"/>
      <point x="398" y="698" type="curve" smooth="yes"/>
      <point x="398" y="677"/>
      <point x="386" y="663"/>
    </contour>
    <contour>
      <point x="326" y="105" type="curve" smooth="yes"/>
      <point x="301" y="105"/>
      <point x="287" y="129"/>
      <point x="287" y="167" type="curve" smooth="yes"/>
      <point x="287" y="189"/>
      <point x="293" y="214"/>
      <point x="305" y="238" type="curve"/>
      <point x="345" y="205"/>
      <point x="363" y="178"/>
      <point x="363" y="151" type="curve" smooth="yes"/>
      <point x="363" y="125"/>
      <point x="348" y="105"/>
    </contour>
  </outline>
</glyph>
<glyph name="u110D7" format="2">
  <advance width="658"/>
  <unicode hex="110D7"/>
  <outline>
    <contour>
      <point x="228" y="0" type="line"/>
      <point x="360" y="0" type="line"/>
      <point x="360" y="509" type="line"/>
      <point x="377" y="538"/>
      <point x="413" y="601"/>
      <point x="460" y="631" type="curve"/>
      <point x="443" y="634" type="line"/>
      <point x="449" y="610"/>
      <point x="485" y="583"/>
      <point x="533" y="583" type="curve" smooth="yes"/>
      <point x="595" y="583"/>
      <point x="643" y="626"/>
      <point x="643" y="696" type="curve" smooth="yes"/>
      <point x="643" y="764"/>
      <point x="593" y="814"/>
      <point x="529" y="814" type="curve" smooth="yes"/>
      <point x="460" y="814"/>
      <point x="411" y="772"/>
      <point x="353" y="671" type="curve"/>
      <point x="349" y="673" type="line"/>
      <point x="358" y="706"/>
      <point x="360" y="729"/>
      <point x="360" y="771" type="curve" smooth="yes"/>
      <point x="360" y="800" type="line"/>
      <point x="179" y="800" type="line"/>
      <point x="35" y="580" type="line"/>
      <point x="165" y="580" type="line"/>
      <point x="239" y="708" type="line"/>
      <point x="243" y="705" type="line"/>
      <point x="236" y="689"/>
      <point x="228" y="663"/>
      <point x="228" y="633" type="curve" smooth="yes"/>
      <point x="228" y="547" type="line"/>
      <point x="186" y="503"/>
      <point x="130" y="459"/>
      <point x="44" y="450" type="curve" smooth="yes"/>
      <point x="15" y="447" type="line"/>
      <point x="15" y="255" type="line"/>
      <point x="32" y="249" type="line" smooth="yes"/>
      <point x="145" y="209"/>
      <point x="196" y="129"/>
      <point x="228" y="51" type="curve"/>
    </contour>
    <contour>
      <point x="231" y="243" type="line"/>
      <point x="206" y="294"/>
      <point x="164" y="332"/>
      <point x="86" y="351" type="curve"/>
      <point x="86" y="340" type="line"/>
      <point x="162" y="354"/>
      <point x="206" y="379"/>
      <point x="232" y="412" type="curve"/>
      <point x="234" y="410" type="line"/>
      <point x="231" y="397"/>
      <point x="228" y="381"/>
      <point x="228" y="355" type="curve" smooth="yes"/>
      <point x="228" y="311" type="line" smooth="yes"/>
      <point x="228" y="288"/>
      <point x="230" y="274"/>
      <point x="234" y="244" type="curve"/>
    </contour>
    <contour>
      <point x="529" y="663" type="curve" smooth="yes"/>
      <point x="509" y="663"/>
      <point x="496" y="677"/>
      <point x="496" y="698" type="curve" smooth="yes"/>
      <point x="496" y="720"/>
      <point x="508" y="735"/>
      <point x="528" y="735" type="curve" smooth="yes"/>
      <point x="549" y="735"/>
      <point x="562" y="720"/>
      <point x="562" y="698" type="curve" smooth="yes"/>
      <point x="562" y="677"/>
      <point x="550" y="663"/>
    </contour>
  </outline>
</glyph>
<glyph name="u110D8" format="2">
  <advance width="689"/>
  <unicode hex="110D8"/>
  <outline>
    <contour>
      <point x="267" y="-15" type="curve" smooth="yes"/>
      <point x="389" y="-15"/>
      <point x="483" y="65"/>
      <point x="483" y="288" type="curve" smooth="yes"/>
      <point x="483" y="520" type="line"/>
      <point x="486" y="520"/>
      <point x="490" y="520"/>
      <point x="493" y="520" type="curve" smooth="yes"/>
      <point x="616" y="520"/>
      <point x="674" y="594"/>
      <point x="674" y="675" type="curve" smooth="yes"/>
      <point x="674" y="743"/>
      <point x="615" y="814"/>
      <point x="520" y="814" type="curve" smooth="yes"/>
      <point x="457" y="814"/>
      <point x="356" y="773"/>
      <point x="356" y="666" type="curve" smooth="yes"/>
      <point x="356" y="653" type="line"/>
      <point x="288" y="671"/>
      <point x="208" y="710"/>
      <point x="114" y="768" type="curve"/>
      <point x="114" y="636" type="line"/>
      <point x="195" y="591"/>
      <point x="312" y="558"/>
      <point x="351" y="541" type="curve"/>
      <point x="351" y="288" type="line" smooth="yes"/>
      <point x="351" y="159"/>
      <point x="306" y="120"/>
      <point x="257" y="120" type="curve" smooth="yes"/>
      <point x="215" y="120"/>
      <point x="158" y="147"/>
      <point x="149" y="239" type="curve"/>
      <point x="132" y="215" type="line"/>
      <point x="145" y="204"/>
      <point x="168" y="196"/>
      <point x="198" y="196" type="curve" smooth="yes"/>
      <point x="262" y="196"/>
      <point x="316" y="250"/>
      <point x="316" y="333" type="curve" smooth="yes"/>
      <point x="316" y="417"/>
      <point x="259" y="476"/>
      <point x="189" y="476" type="curve" smooth="yes"/>
      <point x="95" y="476"/>
      <point x="35" y="395"/>
      <point x="35" y="259" type="curve" smooth="yes"/>
      <point x="35" y="54"/>
      <point x="156" y="-15"/>
    </contour>
    <contour>
      <point x="184" y="277" type="curve" smooth="yes"/>
      <point x="163" y="277"/>
      <point x="149" y="295"/>
      <point x="149" y="329" type="curve" smooth="yes"/>
      <point x="149" y="361"/>
      <point x="163" y="379"/>
      <point x="184" y="379" type="curve" smooth="yes"/>
      <point x="205" y="379"/>
      <point x="220" y="361"/>
      <point x="220" y="329" type="curve" smooth="yes"/>
      <point x="220" y="295"/>
      <point x="205" y="277"/>
    </contour>
    <contour>
      <point x="499" y="625" type="curve" smooth="yes"/>
      <point x="494" y="625"/>
      <point x="489" y="625"/>
      <point x="483" y="626" type="curve"/>
      <point x="483" y="634" type="line" smooth="yes"/>
      <point x="483" y="690"/>
      <point x="504" y="705"/>
      <point x="524" y="705" type="curve" smooth="yes"/>
      <point x="545" y="705"/>
      <point x="559" y="692"/>
      <point x="559" y="672" type="curve" smooth="yes"/>
      <point x="559" y="648"/>
      <point x="545" y="625"/>
    </contour>
  </outline>
</glyph>
<glyph name="u110D9" format="2">
  <advance width="559"/>
  <unicode hex="110D9"/>
  <outline>
    <contour>
      <point x="265" y="-15" type="curve" smooth="yes"/>
      <point x="398" y="-15"/>
      <point x="489" y="65"/>
      <point x="489" y="291" type="curve" smooth="yes"/>
      <point x="489" y="800" type="line"/>
      <point x="62" y="800" type="line"/>
      <point x="62" y="600" type="line"/>
      <point x="182" y="600" type="line"/>
      <point x="182" y="675" type="line"/>
      <point x="357" y="675" type="line"/>
      <point x="357" y="288" type="line" smooth="yes"/>
      <point x="357" y="160"/>
      <point x="319" y="120"/>
      <point x="263" y="120" type="curve" smooth="yes"/>
      <point x="217" y="120"/>
      <point x="169" y="146"/>
      <point x="160" y="234" type="curve"/>
      <point x="148" y="211" type="line"/>
      <point x="164" y="201"/>
      <point x="181" y="196"/>
      <point x="203" y="196" type="curve" smooth="yes"/>
      <point x="267" y="196"/>
      <point x="321" y="250"/>
      <point x="321" y="333" type="curve" smooth="yes"/>
      <point x="321" y="417"/>
      <point x="264" y="476"/>
      <point x="191" y="476" type="curve" smooth="yes"/>
      <point x="109" y="476"/>
      <point x="35" y="400"/>
      <point x="35" y="248" type="curve" smooth="yes"/>
      <point x="35" y="49"/>
      <point x="161" y="-15"/>
    </contour>
    <contour>
      <point x="189" y="277" type="curve" smooth="yes"/>
      <point x="168" y="277"/>
      <point x="154" y="295"/>
      <point x="154" y="329" type="curve" smooth="yes"/>
      <point x="154" y="361"/>
      <point x="168" y="379"/>
      <point x="189" y="379" type="curve" smooth="yes"/>
      <point x="210" y="379"/>
      <point x="225" y="361"/>
      <point x="225" y="329" type="curve" smooth="yes"/>
      <point x="225" y="295"/>
      <point x="210" y="277"/>
    </contour>
  </outline>
</glyph>
<glyph name="u110DA" format="2">
  <advance width="570"/>
  <unicode hex="110DA"/>
  <outline>
    <contour>
      <point x="288" y="-15" type="curve" smooth="yes"/>
      <point x="431" y="-15"/>
      <point x="500" y="73"/>
      <point x="500" y="167" type="curve" smooth="yes"/>
      <point x="500" y="265"/>
      <point x="437" y="315"/>
      <point x="366" y="315" type="curve" smooth="yes"/>
      <point x="290" y="315"/>
      <point x="236" y="262"/>
      <point x="236" y="182" type="curve" smooth="yes"/>
      <point x="236" y="148"/>
      <point x="249" y="123"/>
      <point x="262" y="110" type="curve"/>
      <point x="259" y="109"/>
      <point x="258" y="109"/>
      <point x="257" y="109" type="curve" smooth="yes"/>
      <point x="232" y="109"/>
      <point x="170" y="137"/>
      <point x="170" y="252" type="curve" smooth="yes"/>
      <point x="170" y="329"/>
      <point x="212" y="404"/>
      <point x="285" y="404" type="curve" smooth="yes"/>
      <point x="319" y="404"/>
      <point x="341" y="387"/>
      <point x="350" y="375" type="curve"/>
      <point x="482" y="375" type="line"/>
      <point x="482" y="800" type="line"/>
      <point x="61" y="800" type="line"/>
      <point x="61" y="600" type="line"/>
      <point x="176" y="600" type="line"/>
      <point x="176" y="675" type="line"/>
      <point x="350" y="675" type="line"/>
      <point x="350" y="462" type="line"/>
      <point x="375" y="481" type="line"/>
      <point x="356" y="501"/>
      <point x="325" y="527"/>
      <point x="273" y="527" type="curve" smooth="yes"/>
      <point x="124" y="528"/>
      <point x="35" y="387"/>
      <point x="35" y="250" type="curve" smooth="yes"/>
      <point x="35" y="88"/>
      <point x="145" y="-15"/>
    </contour>
    <contour>
      <point x="368" y="131" type="curve" smooth="yes"/>
      <point x="347" y="131"/>
      <point x="332" y="149"/>
      <point x="332" y="175" type="curve" smooth="yes"/>
      <point x="332" y="200"/>
      <point x="347" y="218"/>
      <point x="368" y="218" type="curve" smooth="yes"/>
      <point x="389" y="218"/>
      <point x="403" y="200"/>
      <point x="403" y="175" type="curve" smooth="yes"/>
      <point x="403" y="149"/>
      <point x="389" y="131"/>
    </contour>
  </outline>
</glyph>
<glyph name="u110DB" format="2">
  <advance width="562"/>
  <unicode hex="110DB"/>
  <outline>
    <contour>
      <point x="275" y="-15" type="curve" smooth="yes"/>
      <point x="419" y="-15"/>
      <point x="527" y="87"/>
      <point x="527" y="240" type="curve" smooth="yes"/>
      <point x="527" y="330"/>
      <point x="489" y="391"/>
      <point x="438" y="424" type="curve"/>
      <point x="438" y="667" type="line"/>
      <point x="282" y="536" type="line"/>
      <point x="299" y="533" type="line"/>
      <point x="302" y="547"/>
      <point x="309" y="564"/>
      <point x="309" y="607" type="curve" smooth="yes"/>
      <point x="309" y="639" type="line" smooth="yes"/>
      <point x="309" y="759"/>
      <point x="247" y="815"/>
      <point x="168" y="815" type="curve" smooth="yes"/>
      <point x="95" y="815"/>
      <point x="35" y="754"/>
      <point x="35" y="668" type="curve" smooth="yes"/>
      <point x="35" y="590"/>
      <point x="97" y="542"/>
      <point x="158" y="542" type="curve" smooth="yes"/>
      <point x="173" y="542"/>
      <point x="184" y="545"/>
      <point x="188" y="548" type="curve"/>
      <point x="188" y="369" type="line"/>
      <point x="349" y="485" type="line"/>
      <point x="321" y="487" type="line"/>
      <point x="317" y="473"/>
      <point x="312" y="450"/>
      <point x="312" y="424" type="curve" smooth="yes"/>
      <point x="312" y="354" type="line"/>
      <point x="349" y="344"/>
      <point x="392" y="305"/>
      <point x="392" y="231" type="curve" smooth="yes"/>
      <point x="392" y="136"/>
      <point x="323" y="109"/>
      <point x="295" y="109" type="curve" smooth="yes"/>
      <point x="293" y="109"/>
      <point x="291" y="109"/>
      <point x="290" y="109" type="curve"/>
      <point x="290" y="111" type="line"/>
      <point x="304" y="120"/>
      <point x="319" y="148"/>
      <point x="319" y="185" type="curve" smooth="yes"/>
      <point x="319" y="262"/>
      <point x="265" y="315"/>
      <point x="190" y="315" type="curve" smooth="yes"/>
      <point x="118" y="315"/>
      <point x="55" y="265"/>
      <point x="55" y="170" type="curve" smooth="yes"/>
      <point x="55" y="73"/>
      <point x="128" y="-15"/>
    </contour>
    <contour>
      <point x="187" y="131" type="curve" smooth="yes"/>
      <point x="166" y="131"/>
      <point x="152" y="149"/>
      <point x="152" y="175" type="curve" smooth="yes"/>
      <point x="152" y="200"/>
      <point x="166" y="218"/>
      <point x="187" y="218" type="curve" smooth="yes"/>
      <point x="208" y="218"/>
      <point x="223" y="200"/>
      <point x="223" y="175" type="curve" smooth="yes"/>
      <point x="223" y="149"/>
      <point x="208" y="131"/>
    </contour>
    <contour>
      <point x="168" y="628" type="curve" smooth="yes"/>
      <point x="146" y="628"/>
      <point x="132" y="646"/>
      <point x="132" y="671" type="curve" smooth="yes"/>
      <point x="132" y="697"/>
      <point x="146" y="717"/>
      <point x="168" y="717" type="curve" smooth="yes"/>
      <point x="189" y="717"/>
      <point x="203" y="697"/>
      <point x="203" y="673" type="curve" smooth="yes"/>
      <point x="203" y="646"/>
      <point x="189" y="628"/>
    </contour>
  </outline>
</glyph>
<glyph name="u110DC" format="2">
  <advance width="560"/>
  <unicode hex="110DC"/>
  <outline>
    <contour>
      <point x="274" y="-15" type="curve" smooth="yes"/>
      <point x="428" y="-14"/>
      <point x="489" y="107"/>
      <point x="489" y="288" type="curve" smooth="yes"/>
      <point x="490" y="800" type="line"/>
      <point x="358" y="800" type="line"/>
      <point x="358" y="796" type="line" smooth="yes"/>
      <point x="358" y="741"/>
      <point x="321" y="713"/>
      <point x="275" y="713" type="curve" smooth="yes"/>
      <point x="240" y="713"/>
      <point x="197" y="736"/>
      <point x="197" y="792" type="curve" smooth="yes"/>
      <point x="197" y="800" type="line"/>
      <point x="65" y="800" type="line"/>
      <point x="65" y="787" type="line" smooth="yes"/>
      <point x="65" y="643"/>
      <point x="180" y="589"/>
      <point x="263" y="589" type="curve" smooth="yes"/>
      <point x="311" y="589"/>
      <point x="344" y="605"/>
      <point x="358" y="624" type="curve"/>
      <point x="357" y="288" type="line" smooth="yes"/>
      <point x="357" y="162"/>
      <point x="319" y="120"/>
      <point x="265" y="120" type="curve" smooth="yes"/>
      <point x="222" y="120"/>
      <point x="173" y="146"/>
      <point x="160" y="231" type="curve"/>
      <point x="149" y="211" type="line"/>
      <point x="165" y="201"/>
      <point x="183" y="196"/>
      <point x="203" y="196" type="curve" smooth="yes"/>
      <point x="267" y="196"/>
      <point x="321" y="250"/>
      <point x="321" y="333" type="curve" smooth="yes"/>
      <point x="321" y="417"/>
      <point x="264" y="476"/>
      <point x="191" y="476" type="curve" smooth="yes"/>
      <point x="109" y="476"/>
      <point x="35" y="400"/>
      <point x="35" y="255" type="curve" smooth="yes"/>
      <point x="35" y="59"/>
      <point x="160" y="-16"/>
    </contour>
    <contour>
      <point x="189" y="277" type="curve" smooth="yes"/>
      <point x="168" y="277"/>
      <point x="154" y="295"/>
      <point x="154" y="329" type="curve" smooth="yes"/>
      <point x="154" y="361"/>
      <point x="168" y="379"/>
      <point x="189" y="379" type="curve" smooth="yes"/>
      <point x="210" y="379"/>
      <point x="225" y="361"/>
      <point x="225" y="329" type="curve" smooth="yes"/>
      <point x="225" y="295"/>
      <point x="210" y="277"/>
    </contour>
  </outline>
</glyph>
<glyph name="u110DD" format="2">
  <advance width="597"/>
  <unicode hex="110DD"/>
  <outline>
    <contour>
      <point x="422" y="-15" type="curve" smooth="yes"/>
      <point x="494" y="-15"/>
      <point x="562" y="45"/>
      <point x="562" y="178" type="curve" smooth="yes"/>
      <point x="562" y="378"/>
      <point x="451" y="451"/>
      <point x="369" y="452" type="curve" smooth="yes"/>
      <point x="304" y="453"/>
      <point x="257" y="427"/>
      <point x="231" y="398" type="curve"/>
      <point x="231" y="520" type="line"/>
      <point x="234" y="520"/>
      <point x="238" y="520"/>
      <point x="241" y="520" type="curve" smooth="yes"/>
      <point x="355" y="520"/>
      <point x="408" y="594"/>
      <point x="408" y="672" type="curve" smooth="yes"/>
      <point x="408" y="742"/>
      <point x="361" y="814"/>
      <point x="267" y="814" type="curve" smooth="yes"/>
      <point x="203" y="814"/>
      <point x="104" y="777"/>
      <point x="104" y="666" type="curve" smooth="yes"/>
      <point x="104" y="664" type="line"/>
      <point x="77" y="675"/>
      <point x="48" y="689"/>
      <point x="15" y="706" type="curve"/>
      <point x="15" y="581" type="line"/>
      <point x="45" y="567"/>
      <point x="73" y="555"/>
      <point x="99" y="547" type="curve"/>
      <point x="99" y="0" type="line"/>
      <point x="231" y="0" type="line"/>
      <point x="231" y="249" type="line"/>
      <point x="258" y="290"/>
      <point x="303" y="317"/>
      <point x="347" y="317" type="curve" smooth="yes"/>
      <point x="384" y="317"/>
      <point x="423" y="295"/>
      <point x="431" y="250" type="curve"/>
      <point x="444" y="262" type="line"/>
      <point x="437" y="269"/>
      <point x="428" y="272"/>
      <point x="415" y="272" type="curve" smooth="yes"/>
      <point x="343" y="271"/>
      <point x="285" y="220"/>
      <point x="286" y="131" type="curve" smooth="yes"/>
      <point x="287" y="30"/>
      <point x="354" y="-15"/>
    </contour>
    <contour>
      <point x="423" y="81" type="curve" smooth="yes"/>
      <point x="399" y="81"/>
      <point x="382" y="101"/>
      <point x="382" y="138" type="curve" smooth="yes"/>
      <point x="382" y="177"/>
      <point x="399" y="197"/>
      <point x="423" y="197" type="curve" smooth="yes"/>
      <point x="447" y="197"/>
      <point x="463" y="177"/>
      <point x="463" y="138" type="curve" smooth="yes"/>
      <point x="463" y="101"/>
      <point x="447" y="81"/>
    </contour>
    <contour>
      <point x="247" y="625" type="curve" smooth="yes"/>
      <point x="242" y="625"/>
      <point x="237" y="625"/>
      <point x="231" y="626" type="curve"/>
      <point x="231" y="634" type="line" smooth="yes"/>
      <point x="231" y="689"/>
      <point x="249" y="704"/>
      <point x="267" y="704" type="curve" smooth="yes"/>
      <point x="283" y="704"/>
      <point x="293" y="690"/>
      <point x="293" y="667" type="curve" smooth="yes"/>
      <point x="293" y="646"/>
      <point x="282" y="625"/>
    </contour>
  </outline>
</glyph>
<glyph name="u110DE" format="2">
  <advance width="535"/>
  <unicode hex="110DE"/>
  <outline>
    <contour>
      <point x="288" y="-15" type="curve" smooth="yes"/>
      <point x="425" y="-15"/>
      <point x="500" y="69"/>
      <point x="500" y="167" type="curve" smooth="yes"/>
      <point x="500" y="265"/>
      <point x="437" y="315"/>
      <point x="366" y="315" type="curve" smooth="yes"/>
      <point x="293" y="315"/>
      <point x="236" y="259"/>
      <point x="236" y="188" type="curve" smooth="yes"/>
      <point x="236" y="151"/>
      <point x="252" y="121"/>
      <point x="270" y="109" type="curve"/>
      <point x="267" y="109"/>
      <point x="266" y="109"/>
      <point x="265" y="109" type="curve" smooth="yes"/>
      <point x="232" y="109"/>
      <point x="170" y="144"/>
      <point x="170" y="234" type="curve" smooth="yes"/>
      <point x="169" y="326"/>
      <point x="239" y="402"/>
      <point x="340" y="402" type="curve" smooth="yes"/>
      <point x="371" y="402" type="line"/>
      <point x="371" y="521" type="line"/>
      <point x="362" y="521" type="line" smooth="yes"/>
      <point x="313" y="521"/>
      <point x="295" y="528"/>
      <point x="295" y="554" type="curve" smooth="yes"/>
      <point x="295" y="569"/>
      <point x="301" y="588"/>
      <point x="305" y="600" type="curve" smooth="yes"/>
      <point x="315" y="629"/>
      <point x="319" y="648"/>
      <point x="319" y="678" type="curve" smooth="yes"/>
      <point x="319" y="768"/>
      <point x="250" y="800"/>
      <point x="173" y="800" type="curve" smooth="yes"/>
      <point x="94" y="800" type="line"/>
      <point x="94" y="680" type="line"/>
      <point x="124" y="680" type="line" smooth="yes"/>
      <point x="168" y="680"/>
      <point x="186" y="671"/>
      <point x="186" y="642" type="curve" smooth="yes"/>
      <point x="186" y="624"/>
      <point x="180" y="607"/>
      <point x="173" y="589" type="curve" smooth="yes"/>
      <point x="166" y="571"/>
      <point x="161" y="552"/>
      <point x="161" y="538" type="curve" smooth="yes"/>
      <point x="161" y="508"/>
      <point x="176" y="486"/>
      <point x="228" y="467" type="curve"/>
      <point x="219" y="489" type="line"/>
      <point x="97" y="449"/>
      <point x="35" y="332"/>
      <point x="35" y="227" type="curve" smooth="yes"/>
      <point x="35" y="80"/>
      <point x="148" y="-15"/>
    </contour>
    <contour>
      <point x="368" y="131" type="curve" smooth="yes"/>
      <point x="347" y="131"/>
      <point x="332" y="149"/>
      <point x="332" y="175" type="curve" smooth="yes"/>
      <point x="332" y="200"/>
      <point x="347" y="218"/>
      <point x="368" y="218" type="curve" smooth="yes"/>
      <point x="389" y="218"/>
      <point x="403" y="200"/>
      <point x="403" y="175" type="curve" smooth="yes"/>
      <point x="403" y="149"/>
      <point x="389" y="131"/>
    </contour>
  </outline>
</glyph>
<glyph name="u110DF" format="2">
  <advance width="560"/>
  <unicode hex="110DF"/>
  <outline>
    <contour>
      <point x="243" y="-15" type="curve" smooth="yes"/>
      <point x="381" y="-15"/>
      <point x="490" y="80"/>
      <point x="490" y="227" type="curve" smooth="yes"/>
      <point x="490" y="512" type="line"/>
      <point x="394" y="512" type="line"/>
      <point x="385" y="493"/>
      <point x="371" y="481"/>
      <point x="353" y="481" type="curve" smooth="yes"/>
      <point x="336" y="481"/>
      <point x="324" y="492"/>
      <point x="324" y="514" type="curve" smooth="yes"/>
      <point x="324" y="537"/>
      <point x="335" y="568"/>
      <point x="434" y="685" type="curve"/>
      <point x="434" y="800" type="line"/>
      <point x="40" y="800" type="line"/>
      <point x="40" y="600" type="line"/>
      <point x="155" y="600" type="line"/>
      <point x="155" y="675" type="line"/>
      <point x="288" y="675" type="line"/>
      <point x="225" y="593"/>
      <point x="190" y="539"/>
      <point x="190" y="480" type="curve" smooth="yes"/>
      <point x="190" y="411"/>
      <point x="239" y="371"/>
      <point x="298" y="371" type="curve" smooth="yes"/>
      <point x="337" y="371"/>
      <point x="362" y="389"/>
      <point x="379" y="402" type="curve"/>
      <point x="358" y="425" type="line"/>
      <point x="358" y="234" type="line" smooth="yes"/>
      <point x="358" y="145"/>
      <point x="304" y="111"/>
      <point x="270" y="111" type="curve" smooth="yes"/>
      <point x="260" y="111"/>
      <point x="254" y="114"/>
      <point x="250" y="117" type="curve"/>
      <point x="235" y="111" type="line"/>
      <point x="241" y="109"/>
      <point x="251" y="108"/>
      <point x="255" y="108" type="curve" smooth="yes"/>
      <point x="274" y="108"/>
      <point x="299" y="144"/>
      <point x="299" y="190" type="curve" smooth="yes"/>
      <point x="299" y="262"/>
      <point x="247" y="315"/>
      <point x="170" y="315" type="curve" smooth="yes"/>
      <point x="98" y="315"/>
      <point x="35" y="265"/>
      <point x="35" y="171" type="curve" smooth="yes"/>
      <point x="35" y="69"/>
      <point x="110" y="-15"/>
    </contour>
    <contour>
      <point x="167" y="131" type="curve" smooth="yes"/>
      <point x="146" y="131"/>
      <point x="132" y="149"/>
      <point x="132" y="175" type="curve" smooth="yes"/>
      <point x="132" y="200"/>
      <point x="146" y="218"/>
      <point x="167" y="218" type="curve" smooth="yes"/>
      <point x="188" y="218"/>
      <point x="203" y="200"/>
      <point x="203" y="175" type="curve" smooth="yes"/>
      <point x="203" y="149"/>
      <point x="188" y="131"/>
    </contour>
  </outline>
</glyph>
<glyph name="u110E0" format="2">
  <advance width="562"/>
  <unicode hex="110E0"/>
  <outline>
    <contour>
      <point x="301" y="-15" type="curve" smooth="yes"/>
      <point x="413" y="-15"/>
      <point x="527" y="61"/>
      <point x="527" y="272" type="curve" smooth="yes"/>
      <point x="527" y="402"/>
      <point x="455" y="476"/>
      <point x="374" y="476" type="curve" smooth="yes"/>
      <point x="298" y="476"/>
      <point x="241" y="417"/>
      <point x="241" y="333" type="curve" smooth="yes"/>
      <point x="241" y="250"/>
      <point x="295" y="196"/>
      <point x="359" y="196" type="curve" smooth="yes"/>
      <point x="379" y="196"/>
      <point x="397" y="201"/>
      <point x="406" y="213" type="curve"/>
      <point x="397" y="216" type="line"/>
      <point x="391" y="149"/>
      <point x="353" y="120"/>
      <point x="305" y="120" type="curve" smooth="yes"/>
      <point x="249" y="121"/>
      <point x="202" y="161"/>
      <point x="202" y="298" type="curve" smooth="yes"/>
      <point x="202" y="688" type="line"/>
      <point x="212" y="683"/>
      <point x="230" y="679"/>
      <point x="244" y="679" type="curve" smooth="yes"/>
      <point x="260" y="679"/>
      <point x="279" y="683"/>
      <point x="292" y="695" type="curve"/>
      <point x="291" y="691"/>
      <point x="291" y="688"/>
      <point x="291" y="686" type="curve" smooth="yes"/>
      <point x="291" y="617"/>
      <point x="347" y="584"/>
      <point x="396" y="584" type="curve" smooth="yes"/>
      <point x="453" y="584"/>
      <point x="506" y="627"/>
      <point x="506" y="697" type="curve" smooth="yes"/>
      <point x="506" y="761"/>
      <point x="459" y="814"/>
      <point x="391" y="814" type="curve" smooth="yes"/>
      <point x="367" y="814"/>
      <point x="348" y="811"/>
      <point x="326" y="804" type="curve" smooth="yes"/>
      <point x="299" y="797"/>
      <point x="271" y="785"/>
      <point x="244" y="785" type="curve" smooth="yes"/>
      <point x="222" y="785"/>
      <point x="203" y="790"/>
      <point x="180" y="800" type="curve"/>
      <point x="70" y="800" type="line"/>
      <point x="70" y="295" type="line" smooth="yes"/>
      <point x="70" y="58"/>
      <point x="179" y="-15"/>
    </contour>
    <contour>
      <point x="373" y="277" type="curve" smooth="yes"/>
      <point x="352" y="277"/>
      <point x="337" y="295"/>
      <point x="337" y="329" type="curve" smooth="yes"/>
      <point x="337" y="361"/>
      <point x="352" y="379"/>
      <point x="373" y="379" type="curve" smooth="yes"/>
      <point x="394" y="379"/>
      <point x="408" y="361"/>
      <point x="408" y="329" type="curve" smooth="yes"/>
      <point x="408" y="295"/>
      <point x="394" y="277"/>
    </contour>
    <contour>
      <point x="395" y="662" type="curve" smooth="yes"/>
      <point x="376" y="662"/>
      <point x="362" y="678"/>
      <point x="362" y="697" type="curve" smooth="yes"/>
      <point x="362" y="719"/>
      <point x="375" y="734"/>
      <point x="394" y="734" type="curve" smooth="yes"/>
      <point x="415" y="734"/>
      <point x="428" y="719"/>
      <point x="428" y="697" type="curve" smooth="yes"/>
      <point x="428" y="677"/>
      <point x="415" y="662"/>
    </contour>
  </outline>
</glyph>
<glyph name="u110E1" format="2">
  <advance width="657"/>
  <unicode hex="110E1"/>
  <outline>
    <contour>
      <point x="218" y="0" type="line"/>
      <point x="350" y="0" type="line"/>
      <point x="350" y="436" type="line"/>
      <point x="358" y="438"/>
      <point x="370" y="439"/>
      <point x="377" y="439" type="curve" smooth="yes"/>
      <point x="414" y="439"/>
      <point x="451" y="420"/>
      <point x="478" y="387" type="curve"/>
      <point x="561" y="471" type="line"/>
      <point x="528" y="506"/>
      <point x="506" y="543"/>
      <point x="506" y="606" type="curve" smooth="yes"/>
      <point x="506" y="623" type="line"/>
      <point x="475" y="601" type="line"/>
      <point x="487" y="592"/>
      <point x="508" y="583"/>
      <point x="532" y="584" type="curve" smooth="yes"/>
      <point x="596" y="584"/>
      <point x="642" y="632"/>
      <point x="642" y="695" type="curve" smooth="yes"/>
      <point x="642" y="760"/>
      <point x="600" y="814"/>
      <point x="532" y="814" type="curve" smooth="yes"/>
      <point x="462" y="814"/>
      <point x="400" y="751"/>
      <point x="399" y="648" type="curve" smooth="yes"/>
      <point x="399" y="624" type="line" smooth="yes"/>
      <point x="399" y="593"/>
      <point x="405" y="567"/>
      <point x="416" y="547" type="curve"/>
      <point x="420" y="553" type="line"/>
      <point x="404" y="561"/>
      <point x="389" y="564"/>
      <point x="376" y="564" type="curve" smooth="yes"/>
      <point x="367" y="564"/>
      <point x="356" y="563"/>
      <point x="350" y="562" type="curve"/>
      <point x="350" y="800" type="line"/>
      <point x="156" y="800" type="line"/>
      <point x="55" y="580" type="line"/>
      <point x="176" y="580" type="line"/>
      <point x="224" y="708" type="line"/>
      <point x="229" y="706" type="line"/>
      <point x="221" y="687"/>
      <point x="218" y="663"/>
      <point x="218" y="606" type="curve" smooth="yes"/>
      <point x="218" y="524" type="line"/>
      <point x="177" y="495"/>
      <point x="122" y="478"/>
      <point x="34" y="464" type="curve" smooth="yes"/>
      <point x="15" y="461" type="line"/>
      <point x="15" y="267" type="line"/>
      <point x="35" y="259" type="line" smooth="yes"/>
      <point x="109" y="230"/>
      <point x="193" y="143"/>
      <point x="218" y="54" type="curve"/>
    </contour>
    <contour>
      <point x="219" y="256" type="line"/>
      <point x="195" y="300"/>
      <point x="150" y="349"/>
      <point x="72" y="362" type="curve"/>
      <point x="73" y="353" type="line"/>
      <point x="144" y="366"/>
      <point x="203" y="390"/>
      <point x="221" y="412" type="curve"/>
      <point x="224" y="410" type="line"/>
      <point x="219" y="393"/>
      <point x="218" y="382"/>
      <point x="218" y="357" type="curve" smooth="yes"/>
      <point x="218" y="320" type="line" smooth="yes"/>
      <point x="218" y="293"/>
      <point x="220" y="278"/>
      <point x="224" y="258" type="curve"/>
    </contour>
    <contour>
      <point x="528" y="663" type="curve" smooth="yes"/>
      <point x="508" y="663"/>
      <point x="495" y="677"/>
      <point x="495" y="698" type="curve" smooth="yes"/>
      <point x="495" y="720"/>
      <point x="507" y="735"/>
      <point x="527" y="735" type="curve" smooth="yes"/>
      <point x="548" y="735"/>
      <point x="561" y="720"/>
      <point x="561" y="698" type="curve" smooth="yes"/>
      <point x="561" y="677"/>
      <point x="549" y="663"/>
    </contour>
  </outline>
</glyph>
<glyph name="u110E2" format="2">
  <advance width="708"/>
  <unicode hex="110E2"/>
  <outline>
    <contour>
      <point x="189" y="-14" type="curve" smooth="yes"/>
      <point x="282" y="-14"/>
      <point x="338" y="54"/>
      <point x="338" y="159" type="curve" smooth="yes"/>
      <point x="338" y="258"/>
      <point x="274" y="365"/>
      <point x="165" y="425" type="curve"/>
      <point x="144" y="294" type="line"/>
      <point x="214" y="254"/>
      <point x="225" y="202"/>
      <point x="225" y="168" type="curve" smooth="yes"/>
      <point x="225" y="138"/>
      <point x="215" y="112"/>
      <point x="194" y="112" type="curve" smooth="yes"/>
      <point x="172" y="112"/>
      <point x="157" y="139"/>
      <point x="157" y="198" type="curve" smooth="yes"/>
      <point x="157" y="323"/>
      <point x="262" y="590"/>
      <point x="384" y="735" type="curve"/>
      <point x="324" y="734" type="line"/>
      <point x="452" y="596"/>
      <point x="551" y="323"/>
      <point x="551" y="198" type="curve" smooth="yes"/>
      <point x="551" y="139"/>
      <point x="538" y="112"/>
      <point x="516" y="112" type="curve" smooth="yes"/>
      <point x="495" y="112"/>
      <point x="484" y="132"/>
      <point x="484" y="168" type="curve" smooth="yes"/>
      <point x="484" y="200"/>
      <point x="497" y="257"/>
      <point x="564" y="294" type="curve"/>
      <point x="545" y="425" type="line"/>
      <point x="434" y="365"/>
      <point x="370" y="259"/>
      <point x="370" y="159" type="curve" smooth="yes"/>
      <point x="370" y="55"/>
      <point x="436" y="-14"/>
      <point x="520" y="-14" type="curve" smooth="yes"/>
      <point x="629" y="-14"/>
      <point x="683" y="58"/>
      <point x="683" y="185" type="curve" smooth="yes"/>
      <point x="683" y="393"/>
      <point x="565" y="649"/>
      <point x="414" y="814" type="curve"/>
      <point x="294" y="814" type="line"/>
      <point x="151" y="646"/>
      <point x="25" y="391"/>
      <point x="25" y="198" type="curve" smooth="yes"/>
      <point x="25" y="55"/>
      <point x="86" y="-14"/>
    </contour>
  </outline>
</glyph>
<glyph name="u110E3" format="2">
  <advance width="532"/>
  <unicode hex="110E3"/>
  <outline>
    <contour>
      <point x="271" y="-14" type="curve" smooth="yes"/>
      <point x="374" y="-14"/>
      <point x="444" y="66"/>
      <point x="444" y="164" type="curve" smooth="yes"/>
      <point x="444" y="277"/>
      <point x="359" y="399"/>
      <point x="230" y="438" type="curve"/>
      <point x="255" y="403" type="line"/>
      <point x="308" y="446"/>
      <point x="337" y="487"/>
      <point x="360" y="580" type="curve" smooth="yes"/>
      <point x="377" y="648"/>
      <point x="390" y="690"/>
      <point x="420" y="690" type="curve" smooth="yes"/>
      <point x="432" y="690"/>
      <point x="443" y="684"/>
      <point x="455" y="670" type="curve"/>
      <point x="517" y="761" type="line"/>
      <point x="487" y="802"/>
      <point x="449" y="814"/>
      <point x="425" y="814" type="curve" smooth="yes"/>
      <point x="340" y="814"/>
      <point x="287" y="748"/>
      <point x="262" y="631" type="curve" smooth="yes"/>
      <point x="250" y="573"/>
      <point x="238" y="521"/>
      <point x="226" y="510" type="curve"/>
      <point x="234" y="494" type="line"/>
      <point x="234" y="800" type="line"/>
      <point x="102" y="802" type="line"/>
      <point x="102" y="474" type="line"/>
      <point x="15" y="470" type="line"/>
      <point x="15" y="358" type="line"/>
      <point x="27" y="358" type="line" smooth="yes"/>
      <point x="62" y="358"/>
      <point x="84" y="354"/>
      <point x="102" y="348" type="curve"/>
      <point x="102" y="179" type="line" smooth="yes"/>
      <point x="102" y="30"/>
      <point x="191" y="-14"/>
    </contour>
    <contour>
      <point x="271" y="114" type="curve" smooth="yes"/>
      <point x="251" y="114"/>
      <point x="234" y="130"/>
      <point x="234" y="207" type="curve" smooth="yes"/>
      <point x="234" y="333" type="line"/>
      <point x="216" y="309" type="line"/>
      <point x="273" y="281"/>
      <point x="310" y="226"/>
      <point x="309" y="170" type="curve" smooth="yes"/>
      <point x="309" y="138"/>
      <point x="291" y="114"/>
    </contour>
  </outline>
</glyph>
<glyph name="u110E4" format="2">
  <advance width="555"/>
  <unicode hex="110E4"/>
  <outline>
    <contour>
      <point x="299" y="-15" type="curve" smooth="yes"/>
      <point x="440" y="-15"/>
      <point x="520" y="73"/>
      <point x="520" y="167" type="curve" smooth="yes"/>
      <point x="520" y="265"/>
      <point x="457" y="315"/>
      <point x="383" y="315" type="curve" smooth="yes"/>
      <point x="313" y="315"/>
      <point x="256" y="255"/>
      <point x="256" y="183" type="curve" smooth="yes"/>
      <point x="256" y="146"/>
      <point x="274" y="117"/>
      <point x="289" y="109" type="curve"/>
      <point x="288" y="109"/>
      <point x="286" y="109"/>
      <point x="284" y="109" type="curve" smooth="yes"/>
      <point x="245" y="109"/>
      <point x="195" y="146"/>
      <point x="195" y="221" type="curve" smooth="yes"/>
      <point x="195" y="294"/>
      <point x="253" y="362"/>
      <point x="418" y="421" type="curve"/>
      <point x="380" y="515" type="line"/>
      <point x="354" y="506"/>
      <point x="346" y="503"/>
      <point x="338" y="503" type="curve" smooth="yes"/>
      <point x="321" y="503"/>
      <point x="311" y="515"/>
      <point x="311" y="531" type="curve" smooth="yes"/>
      <point x="311" y="560"/>
      <point x="331" y="598"/>
      <point x="424" y="691" type="curve"/>
      <point x="424" y="800" type="line"/>
      <point x="35" y="800" type="line"/>
      <point x="35" y="600" type="line"/>
      <point x="150" y="600" type="line"/>
      <point x="150" y="675" type="line"/>
      <point x="285" y="675" type="line"/>
      <point x="271" y="690" type="line"/>
      <point x="224" y="629"/>
      <point x="172" y="565"/>
      <point x="172" y="512" type="curve" smooth="yes"/>
      <point x="172" y="460"/>
      <point x="202" y="442"/>
      <point x="234" y="436" type="curve"/>
      <point x="232" y="453" type="line"/>
      <point x="105" y="403"/>
      <point x="60" y="307"/>
      <point x="60" y="213" type="curve" smooth="yes"/>
      <point x="60" y="72"/>
      <point x="156" y="-15"/>
    </contour>
    <contour>
      <point x="388" y="131" type="curve" smooth="yes"/>
      <point x="367" y="131"/>
      <point x="352" y="149"/>
      <point x="352" y="175" type="curve" smooth="yes"/>
      <point x="352" y="200"/>
      <point x="367" y="218"/>
      <point x="388" y="218" type="curve" smooth="yes"/>
      <point x="409" y="218"/>
      <point x="423" y="200"/>
      <point x="423" y="175" type="curve" smooth="yes"/>
      <point x="423" y="149"/>
      <point x="409" y="131"/>
    </contour>
  </outline>
</glyph>
<glyph name="u110E5" format="2">
  <advance width="616"/>
  <unicode hex="110E5"/>
  <outline>
    <contour>
      <point x="335" y="-14" type="curve" smooth="yes"/>
      <point x="491" y="-14"/>
      <point x="546" y="83"/>
      <point x="546" y="249" type="curve" smooth="yes"/>
      <point x="546" y="800" type="line"/>
      <point x="414" y="800" type="line"/>
      <point x="414" y="260" type="line" smooth="yes"/>
      <point x="414" y="159"/>
      <point x="390" y="111"/>
      <point x="338" y="111" type="curve" smooth="yes"/>
      <point x="279" y="111"/>
      <point x="258" y="160"/>
      <point x="258" y="260" type="curve" smooth="yes"/>
      <point x="258" y="800" type="line"/>
      <point x="0" y="800" type="line"/>
      <point x="0" y="675" type="line"/>
      <point x="126" y="675" type="line"/>
      <point x="126" y="249" type="line" smooth="yes"/>
      <point x="126" y="84"/>
      <point x="180" y="-14"/>
    </contour>
  </outline>
</glyph>
<glyph name="u110E6" format="2">
  <advance width="533"/>
  <unicode hex="110E6"/>
  <outline>
    <contour>
      <point x="43" y="0" type="line"/>
      <point x="494" y="0" type="line"/>
      <point x="494" y="125" type="line"/>
      <point x="203" y="125" type="line"/>
      <point x="356" y="307" type="line" smooth="yes"/>
      <point x="429" y="393"/>
      <point x="498" y="477"/>
      <point x="498" y="575" type="curve" smooth="yes"/>
      <point x="498" y="719"/>
      <point x="382" y="815"/>
      <point x="255" y="815" type="curve" smooth="yes"/>
      <point x="126" y="815"/>
      <point x="35" y="725"/>
      <point x="35" y="630" type="curve" smooth="yes"/>
      <point x="35" y="534"/>
      <point x="96" y="484"/>
      <point x="171" y="484" type="curve" smooth="yes"/>
      <point x="245" y="484"/>
      <point x="294" y="539"/>
      <point x="294" y="605" type="curve" smooth="yes"/>
      <point x="294" y="655"/>
      <point x="268" y="688"/>
      <point x="240" y="700" type="curve"/>
      <point x="247" y="700"/>
      <point x="248" y="700"/>
      <point x="249" y="700" type="curve" smooth="yes"/>
      <point x="278" y="700"/>
      <point x="367" y="665"/>
      <point x="366" y="562" type="curve" smooth="yes"/>
      <point x="366" y="491"/>
      <point x="319" y="448"/>
      <point x="237" y="349" type="curve" smooth="yes"/>
      <point x="43" y="114" type="line"/>
    </contour>
    <contour>
      <point x="167" y="582" type="curve" smooth="yes"/>
      <point x="146" y="582"/>
      <point x="132" y="600"/>
      <point x="132" y="625" type="curve" smooth="yes"/>
      <point x="132" y="651"/>
      <point x="146" y="669"/>
      <point x="167" y="669" type="curve" smooth="yes"/>
      <point x="188" y="669"/>
      <point x="203" y="651"/>
      <point x="203" y="625" type="curve" smooth="yes"/>
      <point x="203" y="600"/>
      <point x="188" y="582"/>
    </contour>
  </outline>
</glyph>
<glyph name="u110E7" format="2">
  <advance width="622"/>
  <unicode hex="110E7"/>
  <outline>
    <contour>
      <point x="60" y="0" type="line"/>
      <point x="192" y="0" type="line"/>
      <point x="192" y="39" type="line" smooth="yes"/>
      <point x="192" y="93"/>
      <point x="228" y="113"/>
      <point x="257" y="113" type="curve" smooth="yes"/>
      <point x="282" y="113"/>
      <point x="310" y="101"/>
      <point x="316" y="74" type="curve"/>
      <point x="453" y="74" type="line"/>
      <point x="430" y="196"/>
      <point x="412" y="331"/>
      <point x="412" y="436" type="curve" smooth="yes"/>
      <point x="412" y="495"/>
      <point x="414" y="561"/>
      <point x="426" y="609" type="curve"/>
      <point x="413" y="603" type="line"/>
      <point x="426" y="592"/>
      <point x="446" y="584"/>
      <point x="474" y="584" type="curve" smooth="yes"/>
      <point x="522" y="584"/>
      <point x="579" y="622"/>
      <point x="579" y="696" type="curve" smooth="yes"/>
      <point x="579" y="763"/>
      <point x="527" y="814"/>
      <point x="467" y="814" type="curve" smooth="yes"/>
      <point x="383" y="814"/>
      <point x="280" y="735"/>
      <point x="280" y="445" type="curve" smooth="yes"/>
      <point x="280" y="366"/>
      <point x="290" y="275"/>
      <point x="304" y="217" type="curve"/>
      <point x="311" y="218" type="line"/>
      <point x="295" y="232"/>
      <point x="277" y="239"/>
      <point x="256" y="239" type="curve" smooth="yes"/>
      <point x="236" y="239"/>
      <point x="215" y="234"/>
      <point x="192" y="218" type="curve"/>
      <point x="192" y="800" type="line"/>
      <point x="60" y="800" type="line"/>
    </contour>
    <contour>
      <point x="465" y="663" type="curve" smooth="yes"/>
      <point x="445" y="663"/>
      <point x="432" y="677"/>
      <point x="432" y="698" type="curve" smooth="yes"/>
      <point x="432" y="720"/>
      <point x="444" y="735"/>
      <point x="464" y="735" type="curve" smooth="yes"/>
      <point x="485" y="735"/>
      <point x="498" y="720"/>
      <point x="498" y="698" type="curve" smooth="yes"/>
      <point x="498" y="677"/>
      <point x="486" y="663"/>
    </contour>
  </outline>
</glyph>
<glyph name="u110E8" format="2">
  <advance width="398"/>
  <unicode hex="110E8"/>
  <outline>
    <contour>
      <point x="234" y="-14" type="curve" smooth="yes"/>
      <point x="292" y="-14"/>
      <point x="332" y="5"/>
      <point x="363" y="31" type="curve"/>
      <point x="313" y="136" type="line"/>
      <point x="288" y="116"/>
      <point x="274" y="111"/>
      <point x="258" y="111" type="curve" smooth="yes"/>
      <point x="230" y="111"/>
      <point x="202" y="130"/>
      <point x="202" y="202" type="curve" smooth="yes"/>
      <point x="202" y="573" type="line"/>
      <point x="157" y="559" type="line"/>
      <point x="183" y="532"/>
      <point x="209" y="520"/>
      <point x="244" y="520" type="curve" smooth="yes"/>
      <point x="301" y="520"/>
      <point x="363" y="565"/>
      <point x="363" y="661" type="curve" smooth="yes"/>
      <point x="363" y="741"/>
      <point x="323" y="814"/>
      <point x="228" y="814" type="curve" smooth="yes"/>
      <point x="135" y="814"/>
      <point x="70" y="736"/>
      <point x="70" y="574" type="curve" smooth="yes"/>
      <point x="70" y="201" type="line" smooth="yes"/>
      <point x="70" y="53"/>
      <point x="130" y="-14"/>
    </contour>
    <contour>
      <point x="231" y="615" type="curve" smooth="yes"/>
      <point x="210" y="615"/>
      <point x="196" y="633"/>
      <point x="196" y="666" type="curve" smooth="yes"/>
      <point x="196" y="696"/>
      <point x="210" y="717"/>
      <point x="231" y="717" type="curve" smooth="yes"/>
      <point x="253" y="717"/>
      <point x="267" y="696"/>
      <point x="267" y="666" type="curve" smooth="yes"/>
      <point x="267" y="633"/>
      <point x="253" y="615"/>
    </contour>
  </outline>
</glyph>
<glyph name="u110F0" format="2">
  <advance width="520"/>
  <unicode hex="110F0"/>
  <outline>
    <contour>
      <point x="259" y="-14" type="curve" smooth="yes"/>
      <point x="415" y="-14"/>
      <point x="460" y="84"/>
      <point x="460" y="229" type="curve" smooth="yes"/>
      <point x="460" y="571" type="line" smooth="yes"/>
      <point x="460" y="719"/>
      <point x="411" y="814"/>
      <point x="259" y="814" type="curve" smooth="yes"/>
      <point x="119" y="814"/>
      <point x="60" y="710"/>
      <point x="60" y="571" type="curve" smooth="yes"/>
      <point x="60" y="229" type="line" smooth="yes"/>
      <point x="60" y="90"/>
      <point x="106" y="-14"/>
    </contour>
    <contour>
      <point x="262" y="111" type="curve" smooth="yes"/>
      <point x="207" y="111"/>
      <point x="192" y="160"/>
      <point x="192" y="240" type="curve" smooth="yes"/>
      <point x="192" y="560" type="line" smooth="yes"/>
      <point x="192" y="640"/>
      <point x="207" y="689"/>
      <point x="262" y="689" type="curve" smooth="yes"/>
      <point x="315" y="689"/>
      <point x="328" y="640"/>
      <point x="328" y="560" type="curve" smooth="yes"/>
      <point x="328" y="240" type="line" smooth="yes"/>
      <point x="328" y="160"/>
      <point x="315" y="111"/>
    </contour>
  </outline>
</glyph>
<glyph name="u110F1" format="2">
  <advance width="451"/>
  <unicode hex="110F1"/>
  <outline>
    <contour>
      <point x="96" y="0" type="line"/>
      <point x="228" y="0" type="line"/>
      <point x="228" y="617" type="line" smooth="yes"/>
      <point x="228" y="680"/>
      <point x="245" y="699"/>
      <point x="268" y="699" type="curve" smooth="yes"/>
      <point x="283" y="699"/>
      <point x="302" y="686"/>
      <point x="302" y="662" type="curve" smooth="yes"/>
      <point x="302" y="626"/>
      <point x="250" y="583"/>
      <point x="35" y="572" type="curve"/>
      <point x="35" y="457" type="line"/>
      <point x="320" y="467"/>
      <point x="416" y="556"/>
      <point x="416" y="668" type="curve" smooth="yes"/>
      <point x="416" y="729"/>
      <point x="370" y="814"/>
      <point x="271" y="814" type="curve" smooth="yes"/>
      <point x="182" y="814"/>
      <point x="96" y="751"/>
      <point x="96" y="617" type="curve" smooth="yes"/>
    </contour>
  </outline>
</glyph>
<glyph name="u110F2" format="2">
  <advance width="451"/>
  <unicode hex="110F2"/>
  <outline>
    <contour>
      <point x="223" y="0" type="line"/>
      <point x="355" y="0" type="line"/>
      <point x="355" y="617" type="line" smooth="yes"/>
      <point x="355" y="751"/>
      <point x="269" y="814"/>
      <point x="180" y="814" type="curve" smooth="yes"/>
      <point x="81" y="814"/>
      <point x="35" y="729"/>
      <point x="35" y="668" type="curve" smooth="yes"/>
      <point x="35" y="556"/>
      <point x="131" y="467"/>
      <point x="416" y="457" type="curve"/>
      <point x="416" y="572" type="line"/>
      <point x="201" y="583"/>
      <point x="149" y="626"/>
      <point x="149" y="662" type="curve" smooth="yes"/>
      <point x="149" y="686"/>
      <point x="168" y="699"/>
      <point x="183" y="699" type="curve" smooth="yes"/>
      <point x="206" y="699"/>
      <point x="223" y="680"/>
      <point x="223" y="617" type="curve" smooth="yes"/>
    </contour>
  </outline>
</glyph>
<glyph name="u110F3" format="2">
  <advance width="390"/>
  <unicode hex="110F3"/>
  <outline>
    <contour>
      <point x="171" y="-14" type="curve" smooth="yes"/>
      <point x="261" y="-14"/>
      <point x="320" y="57"/>
      <point x="320" y="231" type="curve" smooth="yes"/>
      <point x="320" y="582" type="line" smooth="yes"/>
      <point x="320" y="745"/>
      <point x="260" y="814"/>
      <point x="170" y="814" type="curve" smooth="yes"/>
      <point x="87" y="814"/>
      <point x="35" y="751"/>
      <point x="35" y="665" type="curve" smooth="yes"/>
      <point x="35" y="576"/>
      <point x="102" y="532"/>
      <point x="161" y="532" type="curve" smooth="yes"/>
      <point x="187" y="532"/>
      <point x="215" y="541"/>
      <point x="242" y="571" type="curve"/>
      <point x="204" y="582" type="line"/>
      <point x="195" y="556"/>
      <point x="188" y="528"/>
      <point x="188" y="412" type="curve" smooth="yes"/>
      <point x="188" y="388" type="line" smooth="yes"/>
      <point x="188" y="275"/>
      <point x="194" y="249"/>
      <point x="202" y="223" type="curve"/>
      <point x="242" y="235" type="line"/>
      <point x="216" y="259"/>
      <point x="192" y="270"/>
      <point x="165" y="270" type="curve" smooth="yes"/>
      <point x="98" y="270"/>
      <point x="35" y="212"/>
      <point x="35" y="124" type="curve" smooth="yes"/>
      <point x="35" y="38"/>
      <point x="99" y="-14"/>
    </contour>
    <contour>
      <point x="168" y="82" type="curve" smooth="yes"/>
      <point x="147" y="82"/>
      <point x="132" y="100"/>
      <point x="132" y="128" type="curve" smooth="yes"/>
      <point x="132" y="155"/>
      <point x="147" y="173"/>
      <point x="168" y="173" type="curve" smooth="yes"/>
      <point x="188" y="173"/>
      <point x="203" y="155"/>
      <point x="203" y="128" type="curve" smooth="yes"/>
      <point x="203" y="100"/>
      <point x="188" y="82"/>
    </contour>
    <contour>
      <point x="168" y="627" type="curve" smooth="yes"/>
      <point x="146" y="627"/>
      <point x="132" y="645"/>
      <point x="132" y="672" type="curve" smooth="yes"/>
      <point x="132" y="699"/>
      <point x="146" y="717"/>
      <point x="168" y="717" type="curve" smooth="yes"/>
      <point x="189" y="717"/>
      <point x="203" y="699"/>
      <point x="203" y="672" type="curve" smooth="yes"/>
      <point x="203" y="645"/>
      <point x="189" y="627"/>
    </contour>
  </outline>
</glyph>
<glyph name="u110F4" format="2">
  <advance width="440"/>
  <unicode hex="110F4"/>
  <outline>
    <contour>
      <point x="196" y="-14" type="curve" smooth="yes"/>
      <point x="331" y="-14"/>
      <point x="370" y="66"/>
      <point x="370" y="190" type="curve" smooth="yes"/>
      <point x="370" y="800" type="line"/>
      <point x="238" y="800" type="line"/>
      <point x="238" y="381" type="line" smooth="yes"/>
      <point x="238" y="320"/>
      <point x="242" y="289"/>
      <point x="249" y="241" type="curve"/>
      <point x="255" y="252" type="line"/>
      <point x="248" y="264"/>
      <point x="227" y="270"/>
      <point x="211" y="270" type="curve" smooth="yes"/>
      <point x="140" y="270"/>
      <point x="91" y="205"/>
      <point x="91" y="139" type="curve" smooth="yes"/>
      <point x="91" y="115"/>
      <point x="102" y="101"/>
      <point x="109" y="94" type="curve"/>
      <point x="116" y="118" type="line"/>
      <point x="98" y="124"/>
      <point x="50" y="144"/>
      <point x="5" y="169" type="curve"/>
      <point x="5" y="33" type="line"/>
      <point x="64" y="5"/>
      <point x="138" y="-14"/>
    </contour>
    <contour>
      <point x="223" y="83" type="curve" smooth="yes"/>
      <point x="201" y="83"/>
      <point x="187" y="102"/>
      <point x="187" y="129" type="curve" smooth="yes"/>
      <point x="187" y="157"/>
      <point x="201" y="175"/>
      <point x="223" y="175" type="curve" smooth="yes"/>
      <point x="244" y="175"/>
      <point x="258" y="157"/>
      <point x="258" y="129" type="curve" smooth="yes"/>
      <point x="258" y="102"/>
      <point x="244" y="83"/>
    </contour>
  </outline>
</glyph>
<glyph name="u110F5" format="2">
  <advance width="414"/>
  <unicode hex="110F5"/>
  <outline>
    <contour>
      <point x="70" y="0" type="line"/>
      <point x="195" y="0" type="line"/>
      <point x="409" y="271" type="line"/>
      <point x="409" y="361" type="line"/>
      <point x="202" y="361" type="line"/>
      <point x="202" y="800" type="line"/>
      <point x="70" y="800" type="line"/>
    </contour>
    <contour>
      <point x="202" y="168" type="line"/>
      <point x="202" y="260" type="line"/>
      <point x="277" y="260" type="line"/>
    </contour>
  </outline>
</glyph>
<glyph name="u110F6" format="2">
  <advance width="382"/>
  <unicode hex="110F6"/>
  <outline>
    <contour>
      <point x="48" y="-29" type="line"/>
      <point x="72" y="-27"/>
      <point x="123" y="-22"/>
      <point x="154" y="-1" type="curve"/>
      <point x="173" y="-8"/>
      <point x="197" y="-14"/>
      <point x="217" y="-14" type="curve" smooth="yes"/>
      <point x="284" y="-14"/>
      <point x="347" y="31"/>
      <point x="347" y="127" type="curve" smooth="yes"/>
      <point x="347" y="207"/>
      <point x="295" y="268"/>
      <point x="232" y="268" type="curve" smooth="yes"/>
      <point x="225" y="268"/>
      <point x="220" y="264"/>
      <point x="210" y="256" type="curve"/>
      <point x="217" y="251" type="line"/>
      <point x="234" y="269"/>
      <point x="244" y="278"/>
      <point x="258" y="298" type="curve" smooth="yes"/>
      <point x="274" y="320"/>
      <point x="281" y="350"/>
      <point x="281" y="416" type="curve" smooth="yes"/>
      <point x="281" y="800" type="line"/>
      <point x="149" y="800" type="line"/>
      <point x="149" y="379" type="line" smooth="yes"/>
      <point x="149" y="333"/>
      <point x="141" y="302"/>
      <point x="120" y="267" type="curve" smooth="yes"/>
      <point x="91" y="217"/>
      <point x="79" y="176"/>
      <point x="79" y="145" type="curve" smooth="yes"/>
      <point x="79" y="117"/>
      <point x="86" y="99"/>
      <point x="95" y="84" type="curve"/>
      <point x="94" y="108" type="line"/>
      <point x="78" y="98"/>
      <point x="53" y="90"/>
      <point x="0" y="87" type="curve"/>
    </contour>
    <contour>
      <point x="215" y="83" type="curve" smooth="yes"/>
      <point x="194" y="83"/>
      <point x="180" y="102"/>
      <point x="180" y="129" type="curve" smooth="yes"/>
      <point x="180" y="157"/>
      <point x="194" y="175"/>
      <point x="215" y="175" type="curve" smooth="yes"/>
      <point x="237" y="175"/>
      <point x="251" y="157"/>
      <point x="251" y="129" type="curve" smooth="yes"/>
      <point x="251" y="102"/>
      <point x="237" y="83"/>
    </contour>
  </outline>
</glyph>
<glyph name="u110F7" format="2">
  <advance width="403"/>
  <unicode hex="110F7"/>
  <outline>
    <contour>
      <point x="233" y="-14" type="curve" smooth="yes"/>
      <point x="323" y="-14"/>
      <point x="368" y="56"/>
      <point x="368" y="131" type="curve" smooth="yes"/>
      <point x="368" y="221"/>
      <point x="301" y="270"/>
      <point x="244" y="270" type="curve" smooth="yes"/>
      <point x="224" y="270"/>
      <point x="207" y="263"/>
      <point x="198" y="255" type="curve"/>
      <point x="207" y="240" type="line"/>
      <point x="212" y="261"/>
      <point x="221" y="322"/>
      <point x="221" y="377" type="curve" smooth="yes"/>
      <point x="221" y="465" type="line" smooth="yes"/>
      <point x="221" y="507"/>
      <point x="218" y="542"/>
      <point x="210" y="577" type="curve"/>
      <point x="207" y="575" type="line"/>
      <point x="218" y="541"/>
      <point x="232" y="525"/>
      <point x="242" y="513" type="curve" smooth="yes"/>
      <point x="258" y="490" type="line"/>
      <point x="345" y="562" type="line"/>
      <point x="143" y="814" type="line"/>
      <point x="50" y="736" type="line"/>
      <point x="89" y="686" type="line"/>
      <point x="89" y="167" type="line" smooth="yes"/>
      <point x="89" y="60"/>
      <point x="137" y="-14"/>
    </contour>
    <contour>
      <point x="236" y="83" type="curve" smooth="yes"/>
      <point x="215" y="83"/>
      <point x="201" y="104"/>
      <point x="201" y="129" type="curve" smooth="yes"/>
      <point x="201" y="157"/>
      <point x="215" y="175"/>
      <point x="236" y="175" type="curve" smooth="yes"/>
      <point x="258" y="175"/>
      <point x="272" y="157"/>
      <point x="272" y="129" type="curve" smooth="yes"/>
      <point x="272" y="104"/>
      <point x="258" y="83"/>
    </contour>
  </outline>
</glyph>
<glyph name="u110F8" format="2">
  <advance width="391"/>
  <unicode hex="110F8"/>
  <outline>
    <contour>
      <point x="70" y="0" type="line"/>
      <point x="202" y="0" type="line"/>
      <point x="202" y="800" type="line"/>
      <point x="70" y="800" type="line"/>
    </contour>
    <contour>
      <point x="92" y="0" type="line"/>
      <point x="386" y="0" type="line"/>
      <point x="386" y="125" type="line"/>
      <point x="92" y="125" type="line"/>
    </contour>
  </outline>
</glyph>
<glyph name="u110F9" format="2">
  <advance width="449"/>
  <unicode hex="110F9"/>
  <outline>
    <contour>
      <point x="20" y="-23" type="line"/>
      <point x="187" y="5"/>
      <point x="414" y="62"/>
      <point x="414" y="263" type="curve" smooth="yes"/>
      <point x="414" y="331"/>
      <point x="366" y="384"/>
      <point x="294" y="384" type="curve" smooth="yes"/>
      <point x="260" y="384"/>
      <point x="228" y="366"/>
      <point x="214" y="347" type="curve"/>
      <point x="230" y="340" type="line"/>
      <point x="230" y="800" type="line"/>
      <point x="98" y="800" type="line"/>
      <point x="98" y="108" type="line"/>
      <point x="77" y="102"/>
      <point x="58" y="98"/>
      <point x="20" y="91" type="curve"/>
    </contour>
    <contour>
      <point x="228" y="152" type="curve"/>
      <point x="228" y="223" type="line"/>
      <point x="229" y="272"/>
      <point x="250" y="280"/>
      <point x="269" y="280" type="curve" smooth="yes"/>
      <point x="287" y="280"/>
      <point x="303" y="269"/>
      <point x="303" y="243" type="curve" smooth="yes"/>
      <point x="303" y="206"/>
      <point x="275" y="175"/>
    </contour>
  </outline>
</glyph>
<glyph name=".notdef" format="2">
  <advance width="600"/>
  <outline>
    <contour>
      <point x="95" y="0" type="line"/>
      <point x="506" y="0" type="line"/>
      <point x="506" y="714" type="line"/>
      <point x="95" y="714" type="line"/>
    </contour>
    <contour>
      <point x="146" y="51" type="line"/>
      <point x="146" y="663" type="line"/>
      <point x="455" y="663" type="line"/>
      <point x="455" y="51" type="line"/>
    </contour>
  </outline>
</glyph>
